<svg xmlns="http://www.w3.org/2000/svg" xmlns:xlink="http://www.w3.org/1999/xlink" viewBox="0 0 536.47 352.23"><defs><style>.cls-1,.cls-8{fill:none;}.cls-2{clip-path:url(#clip-path);}.cls-3{fill:#231f20;}.cls-4{fill:#fbe9a1;}.cls-5{fill:#e1cce7;}.cls-6{fill:#d1ece9;}.cls-7{fill:#fdc57f;}.cls-8{stroke:#fff;stroke-miterlimit:10;stroke-dasharray:3 3;}</style><clipPath id="clip-path" transform="translate(0 0)"><rect class="cls-1" x="259.62" width="276.85" height="190.07"/></clipPath></defs><title>Asset 6</title><g id="Layer_2" data-name="Layer 2"><g id="Layer_1-2" data-name="Layer 1"><g class="cls-2"><g class="cls-2"><path class="cls-3" d="M531.41,0c3.58-.06,5.76,3.05,4.85,7Q523,64.44,509.63,121.88q-7.25,31.29-14.51,62.59c-1.25,5.4-4.72,7.05-9,4.27Q452.54,167.08,419,145.38a2.34,2.34,0,0,0-3.17.07q-15.29,12-30.64,23.82c-5.65,4.38-11.29,8.8-17,13.16-3.47,2.67-7.94,1.16-8.69-2.84-1.72-9.07-4.05-18-6.08-27-1.73-7.71-3.56-15.41-5.34-23.1-1.89-8.2-3.81-16.39-5.65-24.59a2.48,2.48,0,0,0-2.54-2.17q-35.91-4.38-71.8-8.85a40.07,40.07,0,0,1-4.65-.68,4.76,4.76,0,0,1-3.77-4,5,5,0,0,1,2.55-5.43,15.43,15.43,0,0,1,3.32-1.29c18.45-5.85,37-11.32,55.42-17.26,24.69-8,49.6-15.22,74.29-23.18,23.27-7.49,46.75-14.3,70-21.82,10.52-3.41,21.14-6.51,31.71-9.75,0-.05,0-.1,0-.16C507.52,7.08,518.08,3.82,528.66.6a10.67,10.67,0,0,1,2.75-.6m-43,183.07L530.88,9.83,267.66,88.2l77.83,11.09L370,175.64l43.25-41.5Z" transform="translate(0 0)"/><path class="cls-3" d="M530.88,9.83,488.43,183.07l-75.16-48.93L370,175.64,345.49,99.29,267.66,88.2Zm-8.2,9.72c.11-.47.2-1,.38-1.78-2.9,2.13-5.57,4.08-8.23,6.05L412.64,99.4q-9.63,7.11-19.22,14.24c-2.11,1.55-2.11,1.57.16,3q18.92,12.21,37.85,24.4,26,16.78,52.05,33.61c2.81,1.83,2.77,1.84,3.52-1.35q7.78-33.59,15.59-67.17,10-43.31,20.09-86.62M478.2,38a5.77,5.77,0,0,0,.42-.49c-7.69,3.87-15.14,7.66-22.6,11.41q-30.86,15.5-61.7,31-20.1,10.09-40.18,20.2c-1.43.71-1.77,1.54-1.39,3.14,2.36,9.89,4.58,19.8,6.85,29.69,1.67,7.28,3.37,14.55,5,21.83.11.47.28.94.43,1.41l.37,0q3.38-12.17,6.74-24.31c1.57-5.63,3.14-11.25,4.67-16.88a7.53,7.53,0,0,1,2.92-4.24q19.39-14.3,38.77-28.64L478.2,38m-7.14-8.37a1.55,1.55,0,0,0,0-.21L290.14,85.82c0,.11,0,.2,0,.29l12.44,1.54q20.47,2.52,40.94,5a6,6,0,0,0,3.63-.69q27.32-13.76,54.63-27.54Q430.57,50,459.33,35.59c3.92-2,7.82-4,11.73-6M404.31,141.2c1.13-.87,3.1-1.56,3.1-2.77s-2.05-1.75-3.24-2.52c-5.78-3.79-11.58-7.52-17.38-11.26-.79-.52-1.52-1.24-2,.43-3.48,12.84-7,25.67-10.57,38.5-.06.23-.07.48-.15,1.12,10.31-8,20.28-15.74,30.22-23.5" transform="translate(0 0)"/><path class="cls-4" d="M523.06,17.77c-.18.82-.27,1.31-.38,1.79q-10,43.3-20.09,86.61-7.8,33.58-15.59,67.17c-.75,3.19-.71,3.18-3.52,1.35q-26-16.8-52.05-33.61-18.93-12.21-37.85-24.4c-2.27-1.47-2.27-1.49-.16-3.05q9.6-7.12,19.22-14.23L514.83,23.82c2.66-2,5.33-3.92,8.23-6.05" transform="translate(0 0)"/><path class="cls-5" d="M478.62,37.5a5.77,5.77,0,0,1-.42.49L418.55,82.08q-19.38,14.31-38.77,28.64a7.57,7.57,0,0,0-2.92,4.24c-1.53,5.63-3.1,11.25-4.67,16.88q-3.36,12.15-6.74,24.31l-.37,0c-.15-.47-.32-.94-.43-1.41-1.68-7.28-3.38-14.55-5-21.83-2.27-9.9-4.5-19.81-6.85-29.69-.38-1.61,0-2.43,1.39-3.15q20.08-10,40.17-20.19l61.71-31c7.46-3.76,14.91-7.54,22.6-11.41" transform="translate(0 0)"/><path class="cls-6" d="M471.05,29.41a1.48,1.48,0,0,1,0,.21c-3.91,2-7.81,4-11.73,6Q430.56,50.05,401.8,64.47,374.47,78.22,347.17,92a6,6,0,0,1-3.63.69q-20.46-2.57-40.94-5l-12.44-1.54c0-.09,0-.19,0-.29L471.05,29.41" transform="translate(0 0)"/><path class="cls-7" d="M407.41,138.43c0,1.21-2,1.89-3.1,2.77-9.94,7.76-19.91,15.49-30.22,23.5.08-.64.09-.89.15-1.12,3.53-12.83,7.09-25.66,10.57-38.5.46-1.67,1.19-1,2-.43,5.8,3.74,11.6,7.47,17.38,11.26,1.19.76,3.23,1.27,3.24,2.52" transform="translate(0 0)"/></g></g><path class="cls-8" d="M0,347.41c13.07,0,26.38,3.52,39.6,4.2,25.2,1.3,49.78-7.89,72.31-19.26C135,320.69,158,305.3,168.75,281.76c7.12-15.62,8.1-33.25,12.37-49.87s13.48-33.83,29.69-39.5c10.85-3.8,22.8-1.72,34.21-3.11,22-2.67,40.09-17.76,56.83-32.21" transform="translate(0 0)"/></g></g></svg>