<svg xmlns="http://www.w3.org/2000/svg" viewBox="0 0 681.44 124.77"><defs><style>.cls-1{fill:none;stroke:#fff;stroke-miterlimit:10;stroke-dasharray:3 3;}</style></defs><title>Asset 4</title><g id="Layer_2" data-name="Layer 2"><g id="Layer_1-2" data-name="Layer 1"><path class="cls-1" d="M.09,123.94C10,125.72,20,120.09,27,112.84S39.19,96.67,46,89.16c14.8-16.44,36.36-25,57.58-31.22A414.73,414.73,0,0,1,300.79,49c23.12,4.6,46,11.19,69.52,12.5,39.32,2.17,78.21-10.53,117.58-9.6,26.83.64,53.13,7.6,79.91,9.34s55.81-2.71,75.28-21.17"/><path d="M671.83,2.51,679.54.15a2.31,2.31,0,0,1,.67-.15,1.25,1.25,0,0,1,1.18,1.7q-3.23,14-6.47,27.94-1.77,7.61-3.53,15.22c-.31,1.31-1.15,1.72-2.2,1L652.88,35.35a.58.58,0,0,0-.78,0c-2.47,1.94-5,3.86-7.44,5.79l-4.13,3.2a1.26,1.26,0,0,1-2.11-.69c-.42-2.2-1-4.37-1.48-6.56-.42-1.88-.87-3.75-1.3-5.62s-.93-4-1.37-6a.61.61,0,0,0-.62-.53l-17.46-2.15a10.24,10.24,0,0,1-1.13-.16,1.17,1.17,0,0,1-.92-1,1.23,1.23,0,0,1,.62-1.32,3.31,3.31,0,0,1,.81-.31c4.48-1.43,9-2.75,13.47-4.2,6-1.94,12.07-3.7,18.07-5.64,5.66-1.82,11.37-3.47,17-5.3,2.56-.83,5.14-1.59,7.71-2.37v0m4.35,3.28L651.33,24.17l-4.68,3.46c-.51.38-.51.39.05.74l9.2,5.94,12.66,8.17c.68.44.67.45.85-.33Q671.3,34,673.2,25.82l4.89-21.06c0-.12,0-.24.09-.44l-2,1.47M621.54,20.87v.07l3,.37,10,1.23a1.48,1.48,0,0,0,.88-.16l13.28-6.7q7-3.52,14-7c1-.48,1.91-1,2.86-1.46v0l-44,13.72m20,11.19c.38-1.37.77-2.74,1.14-4.11a1.86,1.86,0,0,1,.71-1l9.43-7,14.5-10.72s0-.05.1-.12l-5.49,2.77-15,7.54-9.77,4.91a.58.58,0,0,0-.34.77c.58,2.4,1.12,4.81,1.67,7.22l1.23,5.31c0,.11.07.22.1.34h.09q.82-3,1.64-5.91m7.81,2.28c.28-.22.76-.38.75-.68s-.49-.42-.78-.61c-1.4-.92-2.82-1.83-4.23-2.74-.19-.13-.37-.3-.48.11q-1.27,4.68-2.57,9.36c0,.06,0,.12,0,.27l7.35-5.71"/></g></g></svg>