<svg xmlns="http://www.w3.org/2000/svg" xmlns:xlink="http://www.w3.org/1999/xlink" viewBox="0 0 162.73 49.94"><defs><style>.cls-1{fill:none;}.cls-2{clip-path:url(#clip-path);}.cls-3{fill:#010103;}.cls-4{fill:#faef8b;}</style><clipPath id="clip-path" transform="translate(0 0)"><rect class="cls-1" width="162.73" height="49.94"/></clipPath></defs><title>Asset 3</title><g id="Layer_2" data-name="Layer 2"><g id="Layer_1-2" data-name="Layer 1"><g class="cls-2"><g class="cls-2"><path class="cls-3" d="M4.48,20.45a4.47,4.47,0,1,0,4.29,5.67h.16V24.56a4.47,4.47,0,0,0-4.44-4.11" transform="translate(0 0)"/><path class="cls-3" d="M8.92,24.56v1.56l103.88-.55a24.79,24.79,0,1,0,0-1.57Z" transform="translate(0 0)"/></g></g><polygon class="cls-4" points="149.12 36.17 140.96 32.28 137.93 40.8 134.9 32.28 126.73 36.17 130.61 28 122.09 24.97 130.61 21.94 126.73 13.77 134.9 17.66 137.93 9.14 140.96 17.66 149.12 13.77 145.24 21.94 153.76 24.97 145.24 28 149.12 36.17"/></g></g></svg>