<svg xmlns="http://www.w3.org/2000/svg" xmlns:xlink="http://www.w3.org/1999/xlink" viewBox="0 0 162.73 49.94"><defs><style>.cls-1{fill:none;}.cls-2{clip-path:url(#clip-path);}.cls-3{fill:#010103;}.cls-4{fill:#b8284c;}</style><clipPath id="clip-path"><rect class="cls-1" width="162.73" height="49.94"/></clipPath></defs><title>Asset 2</title><g id="Layer_2" data-name="Layer 2"><g id="Layer_1-2" data-name="Layer 1"><g class="cls-2"><g class="cls-2"><path class="cls-3" d="M4.48,20.45a4.47,4.47,0,1,0,4.29,5.67h.16V24.56a4.47,4.47,0,0,0-4.44-4.11"/><path class="cls-3" d="M8.92,24.56v1.56l103.88-.55a24.79,24.79,0,1,0,0-1.57Zm114.31-2.81a8.1,8.1,0,0,1,9.39-9.38,8,8,0,0,1,4.53,2.82c.61.71,1.09.71,1.65,0A7.94,7.94,0,0,1,141.36,13c4.59-2.5,11.55,1.11,11.36,7.23a10.38,10.38,0,0,1-1.78,5.89c-3.25,5.1-7.7,9-12.35,12.78a.85.85,0,0,1-1.21,0c-4.42-3.53-8.64-7.27-11.89-12a12.89,12.89,0,0,1-2.26-5.2"/><path class="cls-4" d="M132.62,12.37a8.1,8.1,0,0,0-9.39,9.38,12.89,12.89,0,0,0,2.26,5.2c3.25,4.7,7.47,8.44,11.89,12a.85.85,0,0,0,1.21,0c4.65-3.74,9.1-7.68,12.35-12.78a10.38,10.38,0,0,0,1.78-5.89c.19-6.12-6.77-9.73-11.36-7.23a7.94,7.94,0,0,0-2.56,2.11c-.56.75-1,.75-1.65,0a8,8,0,0,0-4.53-2.82"/></g></g></g></g></svg>