<svg xmlns="http://www.w3.org/2000/svg" viewBox="0 0 771.33 212.1"><defs><style>.cls-1{fill:none;stroke:#fff;stroke-miterlimit:10;stroke-dasharray:3 3;}</style></defs><title>Asset 14</title><g id="Layer_2" data-name="Layer 2"><g id="Layer_1-2" data-name="Layer 1"><path class="cls-1" d="M.18,201.55a151.41,151.41,0,0,0,111.39-1.15C156.11,182,189.9,143,234.82,125.61c8.56-3.33,17.8-5.85,26.87-4.4,8.22,1.32,15.54,5.77,22.87,9.71A216.46,216.46,0,0,0,402.9,156c48.59-3.73,94.56-23.88,136.35-48.95,23.14-13.88,48.28-30,74.89-25.53,7.56,1.27,14.74,4.19,22.17,6.07,28.21,7.16,59-1.35,82.48-18.51S759.15,26.85,770.87.2"/></g></g></svg>