<svg xmlns="http://www.w3.org/2000/svg" xmlns:xlink="http://www.w3.org/1999/xlink" viewBox="0 0 191.37 58.73"><defs><style>.cls-1{fill:none;}.cls-2{clip-path:url(#clip-path);}.cls-3{fill:#010103;}.cls-4{fill:#b8284c;}</style><clipPath id="clip-path" transform="translate(0 0)"><rect class="cls-1" width="191.37" height="58.73"/></clipPath></defs><title>Asset 16</title><g id="Layer_2" data-name="Layer 2"><g id="Layer_1-2" data-name="Layer 1"><g class="cls-2"><path class="cls-3" d="M186.11,24.05a5.26,5.26,0,1,1-5.06,6.67h-.18V28.88a5.25,5.25,0,0,1,5.23-4.83" transform="translate(0 0)"/><path class="cls-3" d="M180.88,28.88v1.84L58.71,30.07a29.31,29.31,0,1,1,0-1.84ZM46.45,25.58a9.52,9.52,0,0,0-11-11,9.4,9.4,0,0,0-5.33,3.31c-.71.84-1.28.84-1.94,0a9,9,0,0,0-3-2.48c-5.4-2.95-13.58,1.3-13.36,8.5a12.1,12.1,0,0,0,2.1,6.92c3.81,6,9.05,10.64,14.52,15a1,1,0,0,0,1.43,0C35,41.62,40,37.22,43.8,31.7a15.16,15.16,0,0,0,2.65-6.12" transform="translate(0 0)"/><path class="cls-4" d="M35.41,14.55a9.52,9.52,0,0,1,11,11A15.16,15.16,0,0,1,43.8,31.7C40,37.22,35,41.62,29.82,45.77a1,1,0,0,1-1.43,0c-5.47-4.4-10.71-9-14.52-15a12.1,12.1,0,0,1-2.1-6.92c-.22-7.2,8-11.45,13.36-8.5a9,9,0,0,1,3,2.48c.66.88,1.23.88,1.94,0a9.4,9.4,0,0,1,5.33-3.31" transform="translate(0 0)"/></g></g></g></svg>