<svg xmlns="http://www.w3.org/2000/svg" xmlns:xlink="http://www.w3.org/1999/xlink" viewBox="0 0 222.72 68.34"><defs><style>.cls-1{fill:none;}.cls-2{clip-path:url(#clip-path);}.cls-3{fill:#010103;}.cls-4{fill:#faef8b;}.cls-5{fill:#100d0f;}</style><clipPath id="clip-path"><rect class="cls-1" width="222.72" height="68.34"/></clipPath></defs><title>Asset 17</title><g id="Layer_2" data-name="Layer 2"><g id="Layer_1-2" data-name="Layer 1"><g class="cls-2"><g class="cls-2"><path class="cls-3" d="M6.11,28A6.12,6.12,0,1,0,12,35.75L154.39,35a34.08,34.08,0,1,0,0-2.14L12.21,33.6A6.11,6.11,0,0,0,6.11,28m150.41,6.18a32,32,0,1,1,32,32,32,32,0,0,1-32-32"/><path class="cls-4" d="M188.55,2.14a32,32,0,1,0,32,32,32,32,0,0,0-32-32M178.2,38.83l-12-4.28,12-4.29-5.49-11.55,11.55,5.49,4.29-12,4.28,12,11.55-5.49-5.49,11.55,12.05,4.29-12.05,4.28,5.49,11.55-11.55-5.49-4.28,12-4.29-12-11.55,5.49Z"/><polygon class="cls-5" points="166.15 34.55 178.2 38.83 172.71 50.38 184.26 44.89 188.55 56.94 192.83 44.89 204.38 50.38 198.89 38.83 210.94 34.55 198.89 30.26 204.38 18.71 192.83 24.2 188.55 12.16 184.26 24.2 172.71 18.71 178.2 30.26 166.15 34.55"/></g></g></g></g></svg>