<svg xmlns="http://www.w3.org/2000/svg" viewBox="0 0 15.06 18.74"><defs><style>.cls-1{fill:#ff9d33;}.cls-2{fill:#ffce31;}.cls-3{fill:#ffdf85;}</style></defs><title>Asset 2</title><g id="Layer_2" data-name="Layer 2"><g id="Layer_1-2" data-name="Layer 1"><path class="cls-1" d="M14.79,7.55a22,22,0,0,1-2.36,1.9A28.11,28.11,0,0,0,8.69,0,25,25,0,0,1,5.56,7.94a16.83,16.83,0,0,1-1.5-3.12C-3.52,13,2.76,18.74,6.71,18.74c5.06,0,9.52-2.61,8.08-11.19"/><path class="cls-2" d="M11.81,13.81a11.52,11.52,0,0,0,.81-4.05A15,15,0,0,1,11,11a18.16,18.16,0,0,0-2.61-6.3A16.44,16.44,0,0,1,6.17,10a10.94,10.94,0,0,1-1-2.08,10.77,10.77,0,0,0-1.78,5.14,9.74,9.74,0,0,1-1.13-.51C3.4,16.39,5.87,17.22,7,17.22c2,0,4-.63,6-3.66a11.13,11.13,0,0,1-1.13.25"/><path class="cls-3" d="M4.6,11.07S5.42,12.27,6,12A10.64,10.64,0,0,1,8.89,8.92s-.34,3,.06,3.53c.52.7,2-.79,2-.79,0,1.78-1.8,4-3.42,4a3.37,3.37,0,0,1-2.88-4.6"/><path class="cls-1" d="M1.59,4.73A6.75,6.75,0,0,1,.93,2.25C-.53,4.61,0,5.89.53,6.28,1.18,6.8,2.28,6,1.59,4.73"/><path class="cls-1" d="M5,3.28a3.9,3.9,0,0,0-.22-1.51C6.14,2.73,6.13,3.56,6,3.88s-1.06.25-1-.6"/><path class="cls-1" d="M12.7,5a14.41,14.41,0,0,0,1-1.92c1,1.81.42,2.9,0,3.26S12,6.13,12.7,5"/></g></g></svg>