<svg xmlns="http://www.w3.org/2000/svg" viewBox="0 0 908.35 377.68"><defs><style>.cls-1{fill:none;stroke:#fff;stroke-miterlimit:10;stroke-dasharray:3 3;}</style></defs><title>Asset 5</title><g id="Layer_2" data-name="Layer 2"><g id="Layer_1-2" data-name="Layer 1"><path class="cls-1" d="M.35,377.33l47.58-46.22c25.44-24.72,52.69-53.45,52.93-88.93.1-15.91-11-35.1-26.58-32-10.69,2.13-16.76,14.23-16.56,25.13.5,27.2,28,45.59,53.7,54.45,94.81,32.69,200.16,2.33,289.31-43.61,31.39-16.18,62.06-34.49,87.76-58.71,33.71-31.8,57.74-72.74,91.3-104.7C605,58.78,635,40.37,666.29,25.2,690.92,13.26,717,3.09,744.24,1,799.35-3.38,853.3,25.23,908.3,19.8"/></g></g></svg>