<svg xmlns="http://www.w3.org/2000/svg" viewBox="0 0 323.49 411.26"><defs><style>.cls-1{fill:#d6c0e2;}</style></defs><title>Asset 4</title><g id="Layer_2" data-name="Layer 2"><g id="Layer_1-2" data-name="Layer 1"><path class="cls-1" d="M145.47,411.26a185.25,185.25,0,0,0,39.74-5.71,206.36,206.36,0,0,0,35-12.44,266.32,266.32,0,0,0,24.47-13.5,220.72,220.72,0,0,0,29-21.09c10.68-9.15,20.72-19,29.11-30.48,9.72-13.27,18.3-27,20.3-43.82,1-8.53-.1-16.63-5.17-23.94-5.67-8.17-11.85-16-16-25.18A104.72,104.72,0,0,1,294.08,172c2.42-13.53,7-26.44,10.08-39.77,2-8.8,3-17.75,1.66-26.72-2.21-15-9.38-27.79-19.19-39.11a153.5,153.5,0,0,0-29.88-26c-18.65-12.69-39-21.95-60.23-29.28a236,236,0,0,0-25.71-6.8A193.55,193.55,0,0,0,150.94.85,105.21,105.21,0,0,0,116.76,2a37.41,37.41,0,0,0-12.21,4.74c-9.82,6.16-13,15.58-11.69,26.62,1.51,13.2,6.23,25.53,11.28,37.68,3.85,9.27,8.55,18.2,12.51,27.44,5.87,13.69,12.3,27.2,15.78,41.79,2.71,11.36,4.32,22.74-.73,34a25.33,25.33,0,0,1-8.33,10.6C115.75,190.28,107,192,97.8,192c-12.32.07-24.44-2.28-36.66-3.45-8.46-.8-16.85-1.62-25.3-.37-7.32,1.08-14.14,3.33-19.76,8.46C4.91,206.84,1.74,220.42.45,234.58a126.86,126.86,0,0,0,.39,25.09,189.23,189.23,0,0,0,6.59,32.66A203.72,203.72,0,0,0,24.93,334a201.39,201.39,0,0,0,17.63,26.39A131.55,131.55,0,0,0,61.88,380.3c16.27,13.64,34.33,23.63,55.42,27.79a183.18,183.18,0,0,0,28.17,3.17"/></g></g></svg>