<svg xmlns="http://www.w3.org/2000/svg" xmlns:xlink="http://www.w3.org/1999/xlink" viewBox="0 0 581.76 455.75"><defs><style>.cls-1{fill:none;}.cls-2{clip-path:url(#clip-path);}.cls-3{fill:#d4eee1;}</style><clipPath id="clip-path" transform="translate(-31.77)"><rect class="cls-1" y="179.63" width="432.91" height="309.82"/></clipPath></defs><title>Asset 3</title><g id="Layer_2" data-name="Layer 2"><g id="Layer_1-2" data-name="Layer 1"><g class="cls-2"><path class="cls-3" d="M427.86,0A294.53,294.53,0,0,0,357,9.75c-23.09,6.08-46.11,12.66-68.72,20.3-31.63,10.68-63,22.12-94.21,34C171.91,72.56,150,81.7,128.49,91.78,113.4,98.86,99,107.59,84.83,116.4a141.39,141.39,0,0,0-29.32,24.32C49,147.78,43.21,155.38,39,164.18c-5.41,11.27-8.53,22.9-6.69,35.33,1,6.58,2.59,13.14,6.43,18.91,2.59,3.9,4.55,8.22,7.06,12.17,3.37,5.3,7.07,10.37,10.49,15.64A95.27,95.27,0,0,1,63,257.54c4,8.49,8.15,17,11.1,25.82,2.36,7.12,3.48,14.75,4.34,22.25a163.62,163.62,0,0,1,1.24,24.82,170.13,170.13,0,0,1-3.08,24.7,129.44,129.44,0,0,1-5.25,18.54c-3,8.57-6.74,16.88-9.58,25.5a92.36,92.36,0,0,0-4,17.9c-1.09,9.16,7.42,15.67,16.13,17.32,9.26,1.74,18.33.08,27.1-2.57,18.41-5.56,36.66-11.68,55-17.49,21.6-6.83,43.51-12.22,66.07-14.8a241.53,241.53,0,0,1,62.65.69,227.18,227.18,0,0,1,67,20.18C369,428.82,385.93,438,403.1,446.77c9.32,4.74,18.77,9.37,29.61,9,6.33-.24,12.41-1.83,15.75-7.87a35.31,35.31,0,0,0,3.57-10.4,116.8,116.8,0,0,0,1.43-13.63c1.09-14.36,2.23-28.72,3.12-43.1,1.15-18.74,2.23-37.5,3.08-56.26.75-16.63,1.13-33.29,1.7-49.93.27-7.91,2.2-15.47,6.67-22a56.92,56.92,0,0,1,17.57-16.18c12.28-7.5,25.95-10.59,40-12.6s28-3.79,41.88-6.09c10.71-1.77,20.75-5.75,28.88-13.07a56,56,0,0,0,10.32-13.1c7.28-12.32,7.66-26,6.22-39.73a120.23,120.23,0,0,0-4.39-22.86c-2.52-8.14-6.16-16-9.8-23.72a146.43,146.43,0,0,0-9.89-17.8A189.4,189.4,0,0,0,575.71,70a174.9,174.9,0,0,0-15.4-16.77c-7.13-6.58-14.71-12.7-22.43-18.59-11-8.36-23.1-14.75-35.79-20.06A175,175,0,0,0,452.18,1.7C444.1.87,436,.55,427.86,0" transform="translate(-31.77)"/></g></g></g></svg>