<svg xmlns="http://www.w3.org/2000/svg" viewBox="0 0 93.99 22.36"><defs><style>.cls-1{fill:#9fd1d6;}.cls-2{fill:#010101;}.cls-3{fill:#b484c6;}.cls-4{fill:#2c1f67;}</style></defs><title>Asset 8</title><g id="Layer_2" data-name="Layer 2"><g id="Layer_1-2" data-name="Layer 1"><path class="cls-1" d="M21.34,11.18A10.17,10.17,0,1,1,11.18,1,10.16,10.16,0,0,1,21.34,11.18"/><path class="cls-2" d="M11.18,22.36A11.18,11.18,0,1,1,22.36,11.18,11.19,11.19,0,0,1,11.18,22.36M11.18,2a9.15,9.15,0,1,0,9.15,9.15A9.15,9.15,0,0,0,11.18,2"/><path class="cls-3" d="M57.16,11.18A10.17,10.17,0,1,1,47,1,10.16,10.16,0,0,1,57.16,11.18"/><path class="cls-2" d="M47,22.36A11.18,11.18,0,1,1,58.17,11.18,11.19,11.19,0,0,1,47,22.36M47,2a9.15,9.15,0,1,0,9.15,9.15A9.15,9.15,0,0,0,47,2"/><path class="cls-4" d="M93,11.18A10.17,10.17,0,1,1,82.81,1,10.16,10.16,0,0,1,93,11.18"/><path class="cls-2" d="M82.81,22.36A11.18,11.18,0,1,1,94,11.18,11.19,11.19,0,0,1,82.81,22.36M82.81,2A9.15,9.15,0,1,0,92,11.18,9.15,9.15,0,0,0,82.81,2"/></g></g></svg>