<svg xmlns="http://www.w3.org/2000/svg" viewBox="0 0 68.43 68.43"><defs><style>.cls-1{fill:#010103;}.cls-1,.cls-2{fill-rule:evenodd;}.cls-2{fill:#f40b59;}</style></defs><title>Asset 5</title><g id="Layer_2" data-name="Layer 2"><g id="Layer_1-2" data-name="Layer 1"><path class="cls-1" d="M68.43,34.21A34.22,34.22,0,1,1,34.21,0,34.22,34.22,0,0,1,68.43,34.21"/><path class="cls-2" d="M56.45,31.14A19.24,19.24,0,0,1,53,39c-4.9,7.09-11.26,12.73-17.93,18a1.3,1.3,0,0,1-1.83,0c-7-5.65-13.73-11.6-18.63-19.29A15.61,15.61,0,0,1,12,28.9C11.67,19.67,22.17,14.22,29.1,18A11.71,11.71,0,0,1,33,21.19c.85,1.12,1.58,1.12,2.49,0A12.07,12.07,0,0,1,42.28,17c8.23-1.63,15.54,5.71,14.17,14.15"/></g></g></svg>