<svg xmlns="http://www.w3.org/2000/svg" viewBox="0 0 31.52 31.62"><defs><style>.cls-1{fill:#fdeca5;}.cls-2{fill:#29292a;}</style></defs><title>Asset 2</title><g id="Layer_2" data-name="Layer 2"><g id="Layer_1-2" data-name="Layer 1"><path class="cls-1" d="M31.51,15.41a15.94,15.94,0,0,1-16,16.21A15.76,15.76,0,0,1,0,15.76C-.2,7.18,7.27,0,15.72,0A16,16,0,0,1,31.51,15.41m-8.19,5q.06-3.69,0-7.37a4.05,4.05,0,0,0-4-3.91H12.08a3.51,3.51,0,0,0-.72.07,4.25,4.25,0,0,0-3.21,4.15c0,2.22,0,4.45,0,6.68a4.12,4.12,0,0,0,4.12,4.26c2.34,0,4.69,0,7,0a4.1,4.1,0,0,0,4-3.88"/><path class="cls-2" d="M22.06,13.4V20a2.93,2.93,0,0,1-3,3q-3.3,0-6.59,0a2.93,2.93,0,0,1-3-3.05V13.44a2.93,2.93,0,0,1,3-3.12c2.18,0,4.37,0,6.55,0a3,3,0,0,1,3,3.08m-1.29-.83a1,1,0,0,0-.9-1,1,1,0,0,0-1,1,1,1,0,0,0,.95.93.92.92,0,0,0,.93-1m-1.13,4.09a3.9,3.9,0,0,0-7.79,0,3.9,3.9,0,1,0,7.79,0"/><path class="cls-1" d="M19.87,11.61a1,1,0,0,1,.9,1,.92.92,0,0,1-.93,1,1,1,0,0,1-.95-.93,1,1,0,0,1,1-1"/><path class="cls-1" d="M15.78,14.07a2.59,2.59,0,0,1,2.59,2.6,2.62,2.62,0,0,1-5.24,0,2.58,2.58,0,0,1,2.65-2.61"/></g></g></svg>