<svg xmlns="http://www.w3.org/2000/svg" viewBox="0 0 46.84 46.99"><defs><style>.cls-1{fill:#29292a;}.cls-2{fill:#fdeca5;}.cls-3{fill:#e9edee;}</style></defs><title>Asset 4</title><g id="Layer_2" data-name="Layer 2"><g id="Layer_1-2" data-name="Layer 1"><path class="cls-1" d="M23.36,0A23.83,23.83,0,0,1,46.83,22.89,23.73,23.73,0,0,1,23.09,47C10.49,46.84-.31,36.22,0,23.41-.28,10.67,10.81,0,23.36,0m5.36,13.52H18a5.59,5.59,0,0,0-1.07.09,6.33,6.33,0,0,0-4.75,6.17c.06,3.29,0,6.61,0,9.92A6.12,6.12,0,0,0,18.25,36c3.49.07,7,.06,10.44,0a6.09,6.09,0,0,0,6-5.77c.07-3.65.07-7.29,0-10.94a6,6,0,0,0-5.93-5.81"/><path class="cls-2" d="M23.43,13.52h5.29a6,6,0,0,1,5.93,5.81c.07,3.65.07,7.29,0,10.94a6.09,6.09,0,0,1-6,5.77c-3.47.06-7,.07-10.44,0a6.12,6.12,0,0,1-6.11-6.33c0-3.31,0-6.62,0-9.92a6.33,6.33,0,0,1,4.75-6.17A5.59,5.59,0,0,1,18,13.53h5.48m4.85,1.81c-3.26,0-6.5,0-9.75,0A4.37,4.37,0,0,0,14,20v9.67a4.36,4.36,0,0,0,4.47,4.53h9.81a4.34,4.34,0,0,0,4.47-4.52c0-3.25,0-6.49,0-9.74a4.39,4.39,0,0,0-4.5-4.58"/><path class="cls-1" d="M18.53,15.33c3.25,0,6.49,0,9.75,0a4.4,4.4,0,0,1,4.5,4.58c0,3.25,0,6.49,0,9.74a4.35,4.35,0,0,1-4.47,4.52H18.5A4.36,4.36,0,0,1,14,29.64V20a4.37,4.37,0,0,1,4.5-4.64m11,1.93a1.5,1.5,0,0,0-1.47,1.46,1.55,1.55,0,0,0,1.41,1.39,1.43,1.43,0,0,0,.06-2.85m-.34,7.49a5.8,5.8,0,0,0-11.59,0,5.8,5.8,0,1,0,11.59,0"/><path class="cls-2" d="M28.07,18.72a1.5,1.5,0,0,1,1.47-1.46,1.43,1.43,0,0,1-.06,2.85,1.55,1.55,0,0,1-1.41-1.39"/><path class="cls-2" d="M23.4,19a5.75,5.75,0,0,1,5.8,5.75,5.8,5.8,0,1,1-11.59,0A5.77,5.77,0,0,1,23.4,19m.06,1.9a3.86,3.86,0,0,0-3.95,3.88,3.9,3.9,0,0,0,7.79,0,3.86,3.86,0,0,0-3.84-3.86"/><path class="cls-3" d="M19.51,24.78a3.9,3.9,0,0,1,7.79,0,3.9,3.9,0,0,1-7.79,0"/></g></g></svg>