<svg xmlns="http://www.w3.org/2000/svg" viewBox="0 0 46.97 46.86"><defs><style>.cls-1{fill:#29292a;}.cls-2{fill:#fbc980;}</style></defs><title>Asset 1</title><g id="Layer_2" data-name="Layer 2"><g id="Layer_1-2" data-name="Layer 1"><path class="cls-1" d="M0,22.41C.4,10.6,10.69-.35,23.53,0,36.36-.32,46.61,10.82,47,22.56A23.8,23.8,0,0,1,24.42,46.85,23.67,23.67,0,0,1,0,22.41m16.61-9a2.75,2.75,0,0,0-3-2.3c-.23,0-.44,0-.64,0a2.69,2.69,0,0,0-2.48,2.4,2.68,2.68,0,0,0,1.9,3.06,3.88,3.88,0,0,0,2.24,0,2.75,2.75,0,0,0,1.93-3.18m18.91,8.51a5.89,5.89,0,0,0-5.85-3.15A5.45,5.45,0,0,0,25.42,21c-.08.09-.12.22-.33.24a3.23,3.23,0,0,1-.15-1.4c.09-.61-.19-.73-.71-.71-1.25,0-2.51,0-3.76,0-.88,0-.94.06-.94.93,0,.12,0,.23,0,.33,0,5,.1,9.92-.06,14.88,0,.41.09.63.5.63h4.54c.31,0,.44-.12.44-.46,0-2.68,0-5.35,0-8a11.88,11.88,0,0,1,.12-1.79,2.79,2.79,0,0,1,.62-1.38A3.16,3.16,0,0,1,27.9,23a2.64,2.64,0,0,1,2.86,2.19,6.43,6.43,0,0,1,.17,1.69c0,2.75,0,5.48,0,8.22,0,.55.18.75.74.75,1.34,0,2.67,0,4,0,.51,0,.73-.14.71-.69,0-3.33,0-6.66,0-10a7.29,7.29,0,0,0-.85-3.3M16.27,19.84c0-.53-.15-.76-.73-.74-1.32,0-2.68,0-4,0-.49,0-.73.15-.73.68q0,7.71,0,15.42c0,.48.18.68.67.67,1.33,0,2.67,0,4,0,.64,0,.8-.22.8-.81,0-2.53,0-5.05,0-7.58s0-5.09,0-7.65"/><path class="cls-2" d="M13.67,11.08a2.81,2.81,0,0,1,1,5.48,4.06,4.06,0,0,1-2.24,0,2.68,2.68,0,0,1-1.9-3.06A2.69,2.69,0,0,1,13,11.08c.21,0,.41,0,.64,0"/><path class="cls-2" d="M29.68,18.74a5.89,5.89,0,0,1,5.85,3.15,7.29,7.29,0,0,1,.85,3.3c0,3.34,0,6.67,0,10,0,.55-.2.7-.71.7-1.34,0-2.67,0-4,0-.56,0-.74-.2-.74-.75,0-2.74,0-5.47,0-8.22a6.43,6.43,0,0,0-.17-1.69A2.64,2.64,0,0,0,27.9,23a3.16,3.16,0,0,0-2.23,1.19L25.42,21a5.42,5.42,0,0,1,4.26-2.23"/><path class="cls-2" d="M24.23,19.1c.52,0,.8.1.71.71a3.23,3.23,0,0,0,.15,1.4c.21,0,.25-.15.33-.24l.25,3.25a2.79,2.79,0,0,0-.62,1.38,11.88,11.88,0,0,0-.12,1.79c0,2.67,0,5.34,0,8,0,.34-.13.46-.44.46H20c-.41,0-.52-.22-.5-.63.16-5,0-9.92.06-14.88,0-.1,0-.21,0-.33,0-.87.06-.92.94-.93,1.25,0,2.51,0,3.76,0"/><path class="cls-2" d="M15.54,19.1c.58,0,.74.21.73.74,0,2.56,0,5.1,0,7.65s0,5.05,0,7.58c0,.59-.16.83-.8.81-1.34,0-2.68,0-4,0-.49,0-.67-.19-.67-.67q0-7.71,0-15.42c0-.53.24-.68.73-.68,1.33,0,2.69,0,4,0"/></g></g></svg>