<svg xmlns="http://www.w3.org/2000/svg" viewBox="0 0 31.53 31.62"><defs><style>.cls-1{fill:#dbeeee;}</style></defs><title>Asset 3</title><g id="Layer_2" data-name="Layer 2"><g id="Layer_1-2" data-name="Layer 1"><path class="cls-1" d="M31.53,15.18A15.92,15.92,0,0,1,15.08,31.61C7.13,31.35-.24,24.42,0,15.78-.22,7.15,7.28.24,15.19,0A16,16,0,0,1,31.53,15.18m-6.81,5V11.11l-5.15,4,5.15,5.14m-.1-11H7l.13.12,8.57,6.58c.11.09.18.06.27,0l8.52-6.54.18-.15M6.93,22.43H24.61l-6.36-6.35-.13.09-2.2,1.69a.2.2,0,0,1-.29,0c-.37-.3-.75-.58-1.13-.88l-1.2-.91L6.93,22.43M12,15.05l-5.16-4v9.12c1.71-1.72,3.43-3.43,5.16-5.16"/></g></g></svg>