<svg xmlns="http://www.w3.org/2000/svg" viewBox="0 0 46.84 46.97"><defs><style>.cls-1{fill:#29292a;}.cls-2{fill:#e1cce7;}</style></defs><title>Asset 2</title><g id="Layer_2" data-name="Layer 2"><g id="Layer_1-2" data-name="Layer 1"><path class="cls-1" d="M22.56,0A23.78,23.78,0,0,1,46.83,22.54,23.64,23.64,0,0,1,22.4,47C10.59,46.57-.36,36.27,0,23.44-.33,10.62,10.81.35,22.56,0m14,13.64H10.32l.19.17q6.37,4.89,12.73,9.78a.27.27,0,0,0,.4,0L36.3,13.87l.27-.22M10.13,16.47V30l7.66-7.67-7.66-5.88M36.72,30V16.5c-2.59,2-5.13,3.94-7.65,5.87,2.57,2.55,5.11,5.11,7.65,7.63m-9.61-6.12-.2.14c-1.1.83-2.18,1.66-3.27,2.51a.3.3,0,0,1-.43,0c-.55-.46-1.11-.88-1.68-1.32l-1.78-1.35-9.46,9.45H36.55l-9.44-9.44"/><path class="cls-2" d="M10.32,13.65H36.57l-.27.22L23.64,23.58a.27.27,0,0,1-.4,0q-6.34-4.91-12.73-9.77a1.79,1.79,0,0,0-.19-.18"/><path class="cls-2" d="M10.13,30V16.47l7.66,5.88L10.13,30"/><path class="cls-2" d="M36.72,16.5V30c-2.54-2.52-5.08-5.08-7.65-7.63,2.52-1.93,5.06-3.9,7.65-5.87"/><path class="cls-2" d="M26.91,24l.2-.14,9.44,9.44H10.29l9.46-9.45,1.78,1.35c.57.44,1.13.86,1.68,1.32a.3.3,0,0,0,.43,0c1.09-.85,2.17-1.68,3.27-2.51"/></g></g></svg>