<svg xmlns="http://www.w3.org/2000/svg" viewBox="0 0 89.08 61.16"><title>Asset 5</title><g id="Layer_2" data-name="Layer 2"><g id="Layer_1-2" data-name="Layer 1"><path d="M12.7,3.37c3.4,1,6.82,2,10.21,3.13,7.48,2.43,15,4.62,22.52,7,7.94,2.56,16,4.89,23.9,7.45,5.93,1.92,11.9,3.67,17.83,5.56a4.93,4.93,0,0,1,1.07.41,1.62,1.62,0,0,1,.82,1.75A1.53,1.53,0,0,1,87.84,30a15.05,15.05,0,0,1-1.5.22q-11.55,1.42-23.1,2.84a.81.81,0,0,0-.82.7c-.59,2.64-1.2,5.28-1.81,7.91s-1.17,5-1.72,7.44c-.66,2.89-1.41,5.77-2,8.68a1.68,1.68,0,0,1-2.79.92c-1.83-1.4-3.64-2.82-5.46-4.23-3.29-2.56-6.58-5.1-9.86-7.67a.75.75,0,0,0-1,0L16.21,60.73c-1.39.9-2.5.37-2.9-1.38L8.63,39.22Q4.36,20.73.07,2.24A1.65,1.65,0,0,1,1.63,0a3.47,3.47,0,0,1,.88.19L12.72,3.32s0,0,0,.05M4.32,5.72c0,.26.08.42.12.57Q7.66,20.22,10.9,34.16q2.51,10.81,5,21.61c.24,1,.23,1,1.13.44L33.8,45.39,46,37.54c.73-.47.73-.48.05-1L39.85,32,7,7.66,4.32,5.72M21.05,9.46v.07c1.25.64,2.51,1.29,3.77,1.92l18.51,9.3q8.79,4.41,17.58,8.86a2,2,0,0,0,1.17.22L75.25,28.2l4-.49v-.1L21.05,9.46M55,50.24h.12c.05-.15.1-.3.14-.45l1.62-7c.73-3.19,1.45-6.38,2.21-9.56a.75.75,0,0,0-.45-1l-12.93-6.5-19.85-10-7.28-3.68a1.76,1.76,0,0,0,.14.16L37.94,26.41l12.48,9.22A2.42,2.42,0,0,1,51.36,37c.49,1.81,1,3.62,1.5,5.43.72,2.61,1.45,5.22,2.17,7.82M52.25,53c0-.2,0-.28,0-.35q-1.71-6.2-3.4-12.39c-.15-.54-.38-.31-.64-.15-1.86,1.21-3.73,2.41-5.59,3.63-.38.25-1,.41-1,.81s.63.61,1,.89c3.2,2.5,6.4,5,9.72,7.56"/></g></g></svg>