<svg xmlns="http://www.w3.org/2000/svg" viewBox="0 0 390.51 216.26"><defs><style>.cls-1{fill:none;stroke:#010103;stroke-miterlimit:10;stroke-dasharray:3 3;}</style></defs><title>Asset 15</title><g id="Layer_2" data-name="Layer 2"><g id="Layer_1-2" data-name="Layer 1"><path d="M380.9,2.51,388.61.15a2.24,2.24,0,0,1,.67-.15,1.25,1.25,0,0,1,1.18,1.7L384,29.64q-1.75,7.61-3.53,15.22c-.3,1.31-1.14,1.71-2.19,1L361.94,35.35a.57.57,0,0,0-.77,0c-2.48,1.94-5,3.86-7.45,5.79q-2.06,1.61-4.12,3.2a1.27,1.27,0,0,1-2.12-.69c-.41-2.2-1-4.37-1.47-6.56-.43-1.88-.87-3.75-1.3-5.62s-.93-4-1.38-6a.6.6,0,0,0-.62-.53l-17.46-2.15a11,11,0,0,1-1.13-.16,1.17,1.17,0,0,1-.91-1,1.23,1.23,0,0,1,.62-1.32,3.4,3.4,0,0,1,.8-.31c4.49-1.43,9-2.75,13.48-4.2,6-1.94,12.06-3.7,18.07-5.64,5.66-1.82,11.36-3.47,17-5.3,2.56-.83,5.14-1.59,7.71-2.37v0m4.35,3.28L360.39,24.17l-4.67,3.46c-.51.38-.51.39,0,.74l9.2,5.94,12.66,8.17c.69.44.68.45.86-.33q1.89-8.16,3.79-16.33l4.89-21.06c0-.12,0-.24.09-.44l-2,1.47M330.61,20.87v.07l3,.37,9.95,1.23a1.5,1.5,0,0,0,.89-.16q6.63-3.36,13.28-6.7,7-3.52,14-7L374.6,7.2v0l-44,13.72m19.95,11.19L351.7,28a1.77,1.77,0,0,1,.71-1l9.42-7L376.34,9.24l.1-.12-5.5,2.77-15,7.54-9.77,4.91a.58.58,0,0,0-.34.77c.57,2.4,1.11,4.81,1.67,7.22.4,1.77.82,3.54,1.23,5.31a2.56,2.56,0,0,0,.1.34h.09c.55-2,1.09-3.94,1.64-5.91m7.81,2.28c.27-.22.75-.38.75-.68s-.5-.42-.78-.61l-4.23-2.74c-.19-.13-.37-.3-.48.11q-1.28,4.68-2.57,9.36a1.77,1.77,0,0,0,0,.27l7.35-5.71"/><path class="cls-1" d="M332.53,60.33c-25.09,35.47-70.3,38-109.86,37.62L70.25,96.51c-8.44-.08-17.38,0-24.62,5-5.26,3.67-9,9.6-12.41,15.54A269.34,269.34,0,0,0,.5,216.19"/></g></g></svg>