<svg xmlns="http://www.w3.org/2000/svg" viewBox="0 0 207.7 36.77"><defs><style>.cls-1{fill:none;stroke:#010103;stroke-miterlimit:10;stroke-dasharray:3 3;}</style></defs><title>Asset 13</title><g id="Layer_2" data-name="Layer 2"><g id="Layer_1-2" data-name="Layer 1"><path class="cls-1" d="M207.29,26.49c-2.17,3.09-7.72,3.86-12.44,3.64-11.78-.55-22.6-4.9-32.3-9.85S143.74,9.65,133.14,5.83A94.13,94.13,0,0,0,95.35.72a30.16,30.16,0,0,0-6.63,1,27.16,27.16,0,0,0-8,4.4c-7.34,5.3-14.34,10.91-22.55,15.46s-17.91,8-28.19,8.32c-3.32.09-6.72-.14-9.93.53C13,31.91,7.09,37.57.11,36"/></g></g></svg>