<svg xmlns="http://www.w3.org/2000/svg" viewBox="0 0 242.45 63.03"><defs><style>.cls-1{fill:none;stroke:#010103;stroke-miterlimit:10;stroke-dasharray:3 3;}</style></defs><title>Asset 12</title><g id="Layer_2" data-name="Layer 2"><g id="Layer_1-2" data-name="Layer 1"><path d="M231.32,2.9,240.25.17A3,3,0,0,1,241,0a1.45,1.45,0,0,1,1.37,2l-7.5,32.35q-2,8.81-4.09,17.62c-.35,1.53-1.32,2-2.54,1.21L209.37,40.94a.65.65,0,0,0-.89,0q-4.3,3.36-8.63,6.7-2.39,1.86-4.78,3.71a1.46,1.46,0,0,1-2.44-.8c-.49-2.55-1.14-5.07-1.71-7.6-.49-2.17-1-4.34-1.51-6.51s-1.07-4.61-1.59-6.92c-.09-.42-.3-.56-.72-.61Q177,27.7,166.89,26.44c-.44-.06-.89-.09-1.31-.19a1.35,1.35,0,0,1-1.06-1.13,1.41,1.41,0,0,1,.71-1.53,5.4,5.4,0,0,1,.94-.37c5.19-1.64,10.42-3.18,15.61-4.86,6.95-2.24,14-4.28,20.92-6.52,6.54-2.11,13.16-4,19.7-6.15,3-1,5.95-1.83,8.93-2.74Zm5,3.81L207.58,28l-5.42,4c-.59.44-.59.44.05.86,3.55,2.29,7.11,4.57,10.66,6.87l14.66,9.46c.79.51.78.52,1-.38q2.19-9.47,4.39-18.91,2.82-12.19,5.65-24.39c0-.14.06-.28.11-.51l-2.32,1.71M173.09,24.17v.08l3.5.43,11.53,1.42a1.69,1.69,0,0,0,1-.19l15.39-7.75q8.08-4.08,16.2-8.14c1.1-.55,2.2-1.12,3.3-1.68V8.28L173.09,24.17m23.1,12.95q.66-2.37,1.31-4.75a2.14,2.14,0,0,1,.83-1.19l10.91-8.07L226,10.7a1.2,1.2,0,0,0,.12-.14l-6.37,3.21L202.42,22.5q-5.65,2.85-11.32,5.69a.66.66,0,0,0-.39.88c.67,2.79,1.29,5.58,1.93,8.37q.71,3.06,1.43,6.14c0,.13.08.26.12.4h.1c.63-2.28,1.27-4.56,1.9-6.85m9,2.64c.32-.25.88-.44.87-.78s-.57-.49-.91-.71c-1.62-1.07-3.26-2.12-4.89-3.17-.22-.15-.43-.35-.56.12-1,3.62-2,7.23-3,10.84,0,.07,0,.14-.05.32l8.51-6.62"/><path class="cls-1" d="M190.64,52.75c-2,3.09-7.11,3.86-11.45,3.64-10.83-.55-20.78-4.9-29.7-9.85s-17.29-10.63-27-14.45A80.13,80.13,0,0,0,87.7,27a25.69,25.69,0,0,0-6.1,1,24.55,24.55,0,0,0-7.37,4.4C67.48,37.7,61,43.31,53.49,47.86s-16.47,8-25.92,8.32c-3.06.09-6.19-.14-9.13.53C12,58.18,6.53,63.83.12,62.26"/></g></g></svg>