<svg xmlns="http://www.w3.org/2000/svg" viewBox="0 0 1540.5 256.45"><defs><style>.cls-1{fill:none;stroke:#fff;stroke-miterlimit:10;stroke-dasharray:3 3;}</style></defs><title>Asset 4</title><g id="Layer_2" data-name="Layer 2"><g id="Layer_1-2" data-name="Layer 1"><path class="cls-1" d="M.16,204.54c42.51-14.34,85.83-29.1,121.65-56.1,25.5-19.23,46.86-46,56.45-76C183.38,56.43,161,46.52,152.5,61a72.1,72.1,0,0,0-8.62,50c6.26,30.7,31.08,55.37,59.87,67.74,57.58,24.73,124,5.25,181.94-18.51,41-16.82,81.27-35.73,119.56-58.1,47.81-27.93,93.06-61.48,145.31-79.83S765.69,3.59,808.69,38.49C845.53,68.4,860.26,117,884.63,157.68c24.55,41,61.58,76,107.12,90.5,63.77,20.28,133.5-2,192.18-34.16,28.86-15.82,57.68-35.46,72.22-65,15.13-30.73,12.07-68.29-2.45-99.31C1239.49,19.35,1206.52-8.11,1174.9,3c-26.07,9.19-37.84,41-34.53,68.48,6.7,55.71,61.8,96.77,117.7,101.75s110.71-19.13,156.72-51.26c40-27.93,77.74-63.27,125.62-72.68"/></g></g></svg>