<svg xmlns="http://www.w3.org/2000/svg" viewBox="0 0 57.09 57.09"><defs><style>.cls-1{fill:#010103;}.cls-2{fill:#faef8b;}</style></defs><title>Asset 5</title><g id="Layer_2" data-name="Layer 2"><g id="Layer_1-2" data-name="Layer 1"><polygon class="cls-1" points="28.54 0 34.01 15.36 48.73 8.36 41.73 23.08 57.09 28.54 41.73 34.01 48.73 48.73 34.01 41.73 28.54 57.09 23.08 41.73 8.36 48.73 15.36 34.01 0 28.54 15.36 23.08 8.36 8.36 23.08 15.36 28.54 0"/><polygon class="cls-2" points="24.26 39.01 12.3 44.69 17.98 32.73 5.51 28.3 17.98 23.86 12.3 11.91 24.26 17.59 28.69 5.12 33.13 17.59 45.08 11.91 39.4 23.86 51.87 28.3 39.4 32.73 45.08 44.69 33.13 39.01 28.69 51.48 24.26 39.01"/></g></g></svg>