<svg xmlns="http://www.w3.org/2000/svg" viewBox="0 0 265.81 142.31"><defs><style>.cls-1{fill:#fff;}.cls-2{fill:none;stroke:#fff;stroke-miterlimit:10;stroke-dasharray:3 3;}</style></defs><title>Asset 6</title><g id="Layer_2" data-name="Layer 2"><g id="Layer_1-2" data-name="Layer 1"><polygon class="cls-1" points="264.45 2.39 254.13 44.52 235.85 32.62 225.34 42.71 219.37 24.15 200.44 21.45 264.45 2.39"/><path d="M256.2,2.51,263.91.15a2.31,2.31,0,0,1,.67-.15,1.25,1.25,0,0,1,1.18,1.7q-3.22,14-6.47,27.94-1.77,7.61-3.53,15.22c-.31,1.31-1.15,1.72-2.2,1L237.25,35.35a.58.58,0,0,0-.78,0c-2.47,1.94-5,3.86-7.44,5.79l-4.13,3.2a1.26,1.26,0,0,1-2.11-.69c-.42-2.2-1-4.37-1.48-6.56-.42-1.88-.87-3.75-1.3-5.62s-.93-4-1.37-6A.6.6,0,0,0,218,25l-17.46-2.15a10.6,10.6,0,0,1-1.13-.16,1.18,1.18,0,0,1-.92-1,1.23,1.23,0,0,1,.62-1.32,3.31,3.31,0,0,1,.81-.31c4.48-1.43,9-2.75,13.48-4.2,6-1.94,12.06-3.7,18.06-5.64,5.66-1.82,11.37-3.47,17-5.3,2.56-.83,5.14-1.59,7.71-2.37v0m4.35,3.28L235.7,24.17,231,27.63c-.51.38-.51.39,0,.74l9.2,5.94,12.66,8.17c.68.44.67.45.85-.33q1.89-8.16,3.79-16.33l4.89-21.06c0-.12.05-.24.09-.44l-2,1.47M205.91,20.87a.17.17,0,0,0,0,.07l3,.37,10,1.23a1.48,1.48,0,0,0,.88-.16l13.28-6.7,14-7c1-.48,1.91-1,2.86-1.46v0l-44,13.72m20,11.19c.38-1.37.77-2.73,1.14-4.1a1.85,1.85,0,0,1,.71-1c3.15-2.31,6.28-4.64,9.43-7l14.5-10.72s0-.05.11-.12l-5.5,2.77-15,7.54-9.77,4.91a.57.57,0,0,0-.33.77c.57,2.4,1.11,4.81,1.66,7.22L224,37.64c0,.11.07.22.1.34h.09q.83-3,1.64-5.91m7.81,2.28c.28-.22.76-.38.76-.68s-.5-.42-.79-.61c-1.4-.92-2.82-1.83-4.23-2.74-.19-.13-.37-.3-.48.11q-1.27,4.68-2.57,9.36c0,.06,0,.12,0,.27l7.35-5.71"/><path class="cls-2" d="M203.12,60.22c-15.32,18.66-42.9,20-67.05,19.79l-93-.76c-5.15,0-10.61,0-15,2.65-3.21,1.94-5.51,5.06-7.58,8.18a129,129,0,0,0-20,52.16"/></g></g></svg>